<?xml version="1.0" encoding="UTF-8" standalone="no"?>
<!-- Created with Inkscape (http://www.inkscape.org/) -->

<svg
   xmlns:dc="http://purl.org/dc/elements/1.1/"
   xmlns:cc="http://creativecommons.org/ns#"
   xmlns:rdf="http://www.w3.org/1999/02/22-rdf-syntax-ns#"
   xmlns:svg="http://www.w3.org/2000/svg"
   xmlns="http://www.w3.org/2000/svg"
   xmlns:xlink="http://www.w3.org/1999/xlink"
   xmlns:sodipodi="http://sodipodi.sourceforge.net/DTD/sodipodi-0.dtd"
   xmlns:inkscape="http://www.inkscape.org/namespaces/inkscape"
   width="210mm"
   height="297mm"
   viewBox="0 0 210 297"
   version="1.1"
   id="svg1663"
   inkscape:version="0.92.2 (5c3e80d, 2017-08-06)"
   sodipodi:docname="portfolio-illustrations.svg">
  <defs
     id="defs1657">
    <inkscape:path-effect
       effect="spiro"
       id="path-effect3380"
       is_visible="true" />
    <linearGradient
       inkscape:collect="always"
       id="linearGradient2871">
      <stop
         style="stop-color:#835921;stop-opacity:1;"
         offset="0"
         id="stop2867" />
      <stop
         id="stop2876"
         offset="0.52413434"
         style="stop-color:#cf8c2b;stop-opacity:1" />
      <stop
         style="stop-color:#835921;stop-opacity:1"
         offset="1"
         id="stop2869" />
    </linearGradient>
    <inkscape:path-effect
       effect="spiro"
       id="path-effect1911"
       is_visible="true" />
    <filter
       inkscape:collect="always"
       style="color-interpolation-filters:sRGB"
       id="filter1991"
       x="-0.083007872"
       width="1.1660157"
       y="-0.20050123"
       height="1.4010025">
      <feGaussianBlur
         inkscape:collect="always"
         stdDeviation="1.047688"
         id="feGaussianBlur1993" />
    </filter>
    <inkscape:path-effect
       effect="spiro"
       id="path-effect1899"
       is_visible="true" />
    <inkscape:path-effect
       effect="spiro"
       id="path-effect1903"
       is_visible="true" />
    <inkscape:path-effect
       effect="spiro"
       id="path-effect1690"
       is_visible="true" />
    <filter
       inkscape:collect="always"
       style="color-interpolation-filters:sRGB"
       id="filter2744"
       x="-0.019782856"
       width="1.0395657"
       y="-0.011911962"
       height="1.0238239">
      <feGaussianBlur
         inkscape:collect="always"
         stdDeviation="0.52299943"
         id="feGaussianBlur2746" />
    </filter>
    <filter
       inkscape:collect="always"
       style="color-interpolation-filters:sRGB"
       id="filter2740"
       x="-0.019181589"
       width="1.0383632"
       y="-0.016167035"
       height="1.0323341">
      <feGaussianBlur
         inkscape:collect="always"
         stdDeviation="0.52299943"
         id="feGaussianBlur2742" />
    </filter>
    <filter
       inkscape:collect="always"
       style="color-interpolation-filters:sRGB"
       id="filter2690"
       x="-0.013283369"
       width="1.0265667"
       y="-0.010942768"
       height="1.0218855">
      <feGaussianBlur
         inkscape:collect="always"
         stdDeviation="0.45789571"
         id="feGaussianBlur2692" />
    </filter>
    <inkscape:path-effect
       effect="spiro"
       id="path-effect2503"
       is_visible="true" />
    <linearGradient
       inkscape:collect="always"
       xlink:href="#linearGradient2871"
       id="linearGradient2873"
       x1="21.532042"
       y1="152.32979"
       x2="206.18159"
       y2="117.87318"
       gradientUnits="userSpaceOnUse" />
    <inkscape:path-effect
       effect="spiro"
       id="path-effect3380-1"
       is_visible="true" />
    <inkscape:path-effect
       effect="spiro"
       id="path-effect3380-5"
       is_visible="true" />
    <inkscape:path-effect
       effect="spiro"
       id="path-effect3380-8"
       is_visible="true" />
  </defs>
  <sodipodi:namedview
     id="base"
     pagecolor="#ffffff"
     bordercolor="#666666"
     borderopacity="1.0"
     inkscape:pageopacity="0.0"
     inkscape:pageshadow="2"
     inkscape:zoom="0.49497475"
     inkscape:cx="454.95243"
     inkscape:cy="571.19629"
     inkscape:document-units="mm"
     inkscape:current-layer="layer1"
     showgrid="false"
     inkscape:snap-global="true"
     inkscape:window-width="1920"
     inkscape:window-height="1001"
     inkscape:window-x="-9"
     inkscape:window-y="-9"
     inkscape:window-maximized="1" />
  <metadata
     id="metadata1660">
    <rdf:RDF>
      <cc:Work
         rdf:about="">
        <dc:format>image/svg+xml</dc:format>
        <dc:type
           rdf:resource="http://purl.org/dc/dcmitype/StillImage" />
        <dc:title></dc:title>
      </cc:Work>
    </rdf:RDF>
  </metadata>
  <g
     inkscape:label="Layer 1"
     inkscape:groupmode="layer"
     id="layer1">
    <g
       id="g3063">
      <path
         sodipodi:nodetypes="ccccc"
         inkscape:connector-curvature="0"
         id="path1563"
         d="M 21.264773,151.66161 135.03321,86.446536 198.02988,122.81767 84.261432,188.03274 Z"
         style="opacity:0.75;fill:url(#linearGradient2873);fill-opacity:1;stroke:none;stroke-width:0.22277841px;stroke-linecap:butt;stroke-linejoin:miter;stroke-opacity:1" />
      <g
         style="fill:#ffffff;fill-opacity:1;stroke:#d3cfc7;stroke-opacity:1"
         transform="translate(741.62724,-148.80957)"
         id="g1608">
        <path
           style="fill:#ffffff;fill-opacity:1;stroke:#d3cfc7;stroke-width:0.25409827px;stroke-linecap:butt;stroke-linejoin:miter;stroke-opacity:1"
           d="m -640.96693,271.44697 -16.98446,10.2617 26.87206,22.646 16.98446,-10.2617 z"
           id="path1887"
           inkscape:connector-curvature="0"
           sodipodi:nodetypes="ccccc" />
        <path
           style="fill:#ffffff;fill-opacity:1;stroke:#d3cfc7;stroke-width:0.25409827px;stroke-linecap:butt;stroke-linejoin:miter;stroke-opacity:1"
           d="m -605.00102,258.58662 -16.98446,10.2617 26.87206,22.646 16.98446,-10.2617 z"
           id="path1887-9"
           inkscape:connector-curvature="0"
           sodipodi:nodetypes="ccccc" />
        <path
           style="fill:#ffffff;fill-opacity:1;stroke:#d3cfc7;stroke-width:0.25409827px;stroke-linecap:butt;stroke-linejoin:miter;stroke-opacity:1"
           d="m -608.46275,257.07759 -19.72702,2.14919 10.33771,31.8607 19.72703,-2.14918 z"
           id="path1887-7"
           inkscape:connector-curvature="0"
           sodipodi:nodetypes="ccccc" />
        <path
           style="fill:#ffffff;fill-opacity:1;stroke:#d3cfc7;stroke-width:0.25409827px;stroke-linecap:butt;stroke-linejoin:miter;stroke-opacity:1"
           d="m -621.98548,268.84832 -23.69577,2.14919 17.87834,31.8607 23.69578,-2.14918 z"
           id="path1887-7-2"
           inkscape:connector-curvature="0"
           sodipodi:nodetypes="ccccc" />
      </g>
      <g
         transform="translate(1.1966526,-0.19791415)"
         id="g2986">
        <g
           id="g2074"
           transform="matrix(0.81005473,0,0,0.81005473,590.99115,-84.873752)">
          <path
             inkscape:connector-curvature="0"
             d="m -639.63625,259.30841 v 13.00266 m 9.89232,-13.86795 v 13.02604 m 0.0534,-0.11683 a 1.487044,4.959701 84.805764 0 1 -4.91636,1.90652 1.487044,4.959701 84.805764 0 1 -4.96586,-1.07458 1.487044,4.959701 84.805764 0 1 4.91635,-1.90654 1.487044,4.959701 84.805764 0 1 4.96587,1.0746 z m -0.0341,-12.88963 a 1.487044,4.959701 84.805764 0 1 -4.91636,1.90653 1.487044,4.959701 84.805764 0 1 -4.96586,-1.07459 1.487044,4.959701 84.805764 0 1 4.91635,-1.90652 1.487044,4.959701 84.805764 0 1 4.96587,1.07458 z"
             style="fill:#cf8c2b;fill-opacity:1;stroke:#ad1b42;stroke-width:0.5291667;stroke-linecap:butt;stroke-linejoin:miter;stroke-miterlimit:4;stroke-dasharray:none;stroke-opacity:1"
             id="path1790" />
          <path
             sodipodi:nodetypes="cscccccczzzczcc"
             transform="matrix(0.26458333,0,0,0.26458333,0.02357128,4.61521)"
             inkscape:connector-curvature="0"
             id="path2068"
             d="m -2417.0997,986.3691 c 0,-11.9625 0.032,-21.75 0.071,-21.75 0.039,0 0.2538,0.13954 0.4774,0.31008 2.924,2.23027 11.9543,3.07436 20.7018,1.93507 6.6254,-0.86289 12.5802,-2.81654 14.7812,-4.84944 l 0.3438,-0.31748 v 22.092 22.09197 c 0,0 0.5008,2.7006 -0.2063,3.6729 -0.7072,0.9723 -7.5988,4.4867 -12.209,4.9518 -4.6103,0.4651 -10.1859,0.4429 -13.9667,0.5718 -3.7808,0.1288 -10.5106,-2.5563 -10.5055,-3.3139 0,0 0.3993,-3.6497 0.1384,-3.6466 -0.261,0 0.3741,-4.4305 0.3741,-21.7482 z"
             style="opacity:1;fill:#e13e6a;fill-opacity:1;stroke:none;stroke-width:0.375;stroke-linecap:round;stroke-linejoin:round;stroke-miterlimit:4;stroke-dasharray:none;stroke-dashoffset:0;stroke-opacity:1;paint-order:fill markers stroke" />
        </g>
        <g
           transform="matrix(0.81005473,0,0,0.81005473,596.0538,-90.405396)"
           id="g2134">
          <path
             inkscape:original-d="m -665.38843,175.06565 c -2.74423,1.12848 -3.7415,3.45067 -5.61266,5.17642 -1.87113,1.72576 -4.11567,13.00715 -6.17392,19.51116 -2.05825,6.504 1.62171,10.61803 2.43216,15.92747 0.81044,5.30945 -1.24701,10.88349 -1.8709,16.32565 -0.62389,5.44219 -3.11788,11.28169 -4.6772,16.92295 -1.55935,5.64126 9.10524,-0.79665 13.65745,-1.19456 4.55223,-0.3979 23.19927,-9.15857 34.7985,-13.73744 11.59923,-4.57886 2.74423,-7.30037 4.11597,-10.95014 1.3717,-3.64976 -6.73495,-6.90219 -10.1028,-10.35286 -3.36786,-3.45067 -2.49425,-14.20228 -3.74177,-21.30299 -1.24753,-7.10073 -9.72835,-13.14045 -14.59293,-19.71025 -4.86455,-6.5698 -5.48767,2.25611 -8.2319,3.38459 z"
             inkscape:path-effect="#path-effect1911"
             inkscape:connector-curvature="0"
             id="path1909"
             d="m -665.38843,175.06565 c -2.07516,1.48605 -3.99271,3.204 -5.61266,5.17642 -4.42602,5.38903 -6.43631,12.54249 -6.17392,19.51116 0.20225,5.37138 1.67024,10.60656 2.43216,15.92747 0.78982,5.5157 0.75465,11.41105 -1.8709,16.32565 -1.49773,2.80351 -3.76718,5.14813 -5.17109,7.99978 -0.70196,1.42582 -1.18052,2.98873 -1.16775,4.57793 0.0128,1.5892 0.55208,3.20744 1.66164,4.34524 0.85551,0.87728 2.01071,1.43252 3.2134,1.66712 1.20269,0.23461 2.45186,0.16093 3.64948,-0.0983 2.39526,-0.51846 4.56316,-1.75006 6.79457,-2.76339 5.7289,-2.60161 11.975,-3.79566 18.03966,-5.47153 6.06466,-1.67587 12.17275,-3.9582 16.75884,-8.26591 1.49881,-1.40783 2.8262,-3.03839 3.63921,-4.92715 0.81301,-1.88877 1.08038,-4.05727 0.47676,-6.02299 -0.35893,-1.16888 -1.01144,-2.23346 -1.80225,-3.16605 -0.79082,-0.93258 -1.7191,-1.73953 -2.68208,-2.49305 -1.92594,-1.50705 -4.02784,-2.83625 -5.61847,-4.69376 -2.40015,-2.80284 -3.40686,-6.55921 -3.70675,-10.23707 -0.2999,-3.67787 0.0353,-7.37652 -0.035,-11.06592 -0.0872,-4.57486 -0.85177,-9.27514 -3.27088,-13.15906 -1.20955,-1.94196 -2.82723,-3.64762 -4.78268,-4.83523 -1.95546,-1.18761 -4.25496,-1.84126 -6.53937,-1.71596 -3.0032,0.16472 -5.78654,1.63344 -8.2319,3.38459 z"
             style="fill:#462411;fill-opacity:1;stroke:none;stroke-width:0.27294001px;stroke-linecap:butt;stroke-linejoin:miter;stroke-opacity:1" />
          <path
             sodipodi:nodetypes="ccccccccccccccsssccccccccccccccccsccsc"
             inkscape:connector-curvature="0"
             id="path2011"
             d="m -655.02462,213.30658 c -0.26581,3.09367 0.54934,7.37835 1.51098,7.99562 0.96163,0.61727 10.32342,-5.95807 12.06291,-4.05545 1.45205,1.58822 17.31185,22.10484 17.91152,23.87415 0,0 7.59574,-24.89369 8.20209,-28.17812 0.26459,-1.43316 0.61311,-2.87026 1.07438,-4.25271 l 1.60825,-4.81994 2.34474,-3.53862 1.39347,0.51461 -2.06588,4.25007 -0.24922,2.60169 c 0,0 1.40891,-1.7165 2.06187,-2.45542 1.95144,-2.20835 6.06937,-6.05802 6.06937,-6.05802 2.39339,1.37813 3.3616,2.10676 5.9811,3.52774 0,0 -3.91976,5.81108 -6.76224,7.96823 -2.46817,1.87309 -5.88538,2.79365 -6.33854,4.56142 -0.37373,1.45791 -2.07126,36.66327 -12.56771,36.84323 -7.82631,0.13418 -18.21075,-23.12447 -18.74334,-22.47353 6.41676,10.21154 -1.26009,19.0633 0,29.57161 l -29.72059,16.83799 c 3.08521,-11.27481 2.54848,-20.05953 0,-27.46117 l -8.11487,28.47812 c 0,0 18.97726,-2.95538 27.63438,-3.49974 0,0 3.71367,-0.86362 3.73097,-0.91232 0.38571,-1.0869 1.05881,-2.48408 1.67449,-3.4593 0.24137,-0.38232 1.15756,-1.25677 1.15756,-1.25677 l 1.32292,0.69453 c 0,0 -0.89993,0.88326 -1.10194,1.2795 -0.36116,0.7084 -0.80248,2.53678 -0.80248,2.53678 l 9.51814,-2.28118 -0.19839,7.84597 -9.1603,1.43389 c -0.34057,0.0533 -5.2422,0.0863 -5.2422,0.0863 -6.36315,0.93751 -35.08295,6.29626 -36.20602,5.13911 -6.70569,-6.90918 9.90874,-48.49565 9.91674,-47.02359 0,0 -10e-6,2e-5 0,0 2.89088,-4.80194 11.13404,-7.82423 13.66327,-12.15211 2.40297,-4.11184 -0.16439,-9.78132 -0.16439,-9.78132"
             style="fill:#ac7650;fill-opacity:1;stroke:none;stroke-width:0.26458332px;stroke-linecap:butt;stroke-linejoin:round;stroke-opacity:1" />
          <path
             inkscape:connector-curvature="0"
             id="path2009"
             d="m -598.43015,201.93587 -5.06711,5.06709"
             style="fill:#ac7650;fill-opacity:1;stroke:#78533c;stroke-width:0.26458332px;stroke-linecap:butt;stroke-linejoin:round;stroke-opacity:1" />
          <path
             inkscape:connector-curvature="0"
             id="path2007"
             d="m -600.0136,201.03904 -4.98443,4.99268"
             style="fill:#ac7650;fill-opacity:1;stroke:#78533c;stroke-width:0.26458332px;stroke-linecap:butt;stroke-linejoin:round;stroke-opacity:1" />
          <path
             inkscape:connector-curvature="0"
             id="path2005"
             d="m -601.51527,200.15668 -5.13326,5.13324"
             style="fill:#ac7650;fill-opacity:1;stroke:#78533c;stroke-width:0.26458332px;stroke-linecap:butt;stroke-linejoin:round;stroke-opacity:1" />
          <path
             inkscape:connector-curvature="0"
             id="path2003"
             d="m -636.39906,275.62774 -6.82408,1.82851"
             style="fill:#ac7650;fill-opacity:1;stroke:#78533c;stroke-width:0.26458332px;stroke-linecap:butt;stroke-linejoin:round;stroke-opacity:1" />
          <path
             inkscape:connector-curvature="0"
             id="path2001"
             d="m -636.33291,273.57723 -6.82408,1.82851"
             style="fill:#ac7650;fill-opacity:1;stroke:#78533c;stroke-width:0.26458332px;stroke-linecap:butt;stroke-linejoin:round;stroke-opacity:1" />
          <path
             inkscape:connector-curvature="0"
             id="path1893"
             d="m -636.43766,271.81256 -6.82408,1.82851"
             style="fill:#ac7650;fill-opacity:1;stroke:#78533c;stroke-width:0.26458332px;stroke-linecap:butt;stroke-linejoin:round;stroke-opacity:1" />
          <path
             transform="matrix(0.28182283,0,0,0.37268208,43.305674,-82.959664)"
             inkscape:connector-curvature="0"
             id="path1961"
             d="m -2490.4967,814.58559 c -3.4351,-0.47789 -7.9741,-2.32237 -11.196,-4.54966 -1.9292,-1.33366 -3.6759,-2.98104 -2.8468,-2.68496 2.9754,1.06262 4.5964,1.28584 9.2928,1.27965 4.163,-0.005 5.0126,-0.0774 6.875,-0.5817 3.8427,-1.04056 6.7942,-2.40831 10.4238,-4.83041 0.9893,-0.6602 1.8466,-1.11673 1.9052,-1.01451 0.059,0.10221 0.1863,1.0296 0.2839,2.06085 0.1694,1.789 1.011,6.90154 1.2842,7.80111 0.1064,0.35051 -0.3054,0.55923 -2.3214,1.17645 -3.7571,1.15032 -6.241,1.52706 -9.7908,1.48498 -1.738,-0.0206 -3.4974,-0.0844 -3.9099,-0.1418 z"
             style="opacity:1;fill:#78533c;fill-opacity:1;stroke:none;stroke-width:0.25019684;stroke-linecap:round;stroke-linejoin:round;stroke-miterlimit:4;stroke-dasharray:1.50118109, 1.50118109;stroke-dashoffset:0;stroke-opacity:1;paint-order:fill markers stroke;filter:url(#filter1991)" />
          <ellipse
             transform="matrix(0.99966667,-0.02581774,0.02078197,0.99978403,0,0)"
             ry="20.761122"
             rx="12.185789"
             cy="180.77658"
             cx="-663.77649"
             id="path1862"
             style="opacity:1;fill:#ac7650;fill-opacity:1;stroke:none;stroke-width:0.2623935;stroke-linecap:round;stroke-linejoin:round;stroke-miterlimit:4;stroke-dasharray:none;stroke-dashoffset:0;stroke-opacity:1;paint-order:fill markers stroke" />
          <path
             inkscape:original-d="m -665.38843,179.63973 c 1.3099,1.62117 2.61951,3.2426 3.92888,4.8643 1.30934,1.6217 6.23654,2.49425 9.35442,3.74177 3.11787,1.24753 3.74203,9.72835 5.61266,14.59292 1.87063,4.86457 0.74861,4.61459 1.12255,6.92228"
             inkscape:path-effect="#path-effect1899"
             inkscape:connector-curvature="0"
             id="path1897"
             d="m -665.38843,179.63973 c 0.69732,2.00867 2.11187,3.76001 3.92888,4.8643 1.44034,0.87537 3.08637,1.33855 4.70382,1.81261 1.61744,0.47407 3.25661,0.98171 4.6506,1.92916 2.22927,1.51517 3.61545,4.0249 4.36382,6.61437 0.74838,2.58947 0.93338,5.30163 1.24884,7.97855 0.27367,2.32224 0.64832,4.63257 1.12255,6.92228"
             style="fill:none;stroke:#280e00;stroke-width:0.79374999;stroke-linecap:butt;stroke-linejoin:miter;stroke-miterlimit:4;stroke-dasharray:none;stroke-opacity:1" />
          <path
             inkscape:original-d="m -662.39502,184.12986 c -0.81044,1.87062 -1.62115,3.7415 -2.43212,5.61265 -0.81101,1.87116 -3.36736,6.1113 -5.0514,9.16735 -1.68408,3.05604 -1.99536,6.48548 -2.99342,9.72861"
             inkscape:path-effect="#path-effect1903"
             inkscape:connector-curvature="0"
             id="path1901"
             d="m -662.39502,184.12986 c -0.68347,1.92266 -1.49663,3.7992 -2.43212,5.61265 -1.59993,3.10146 -3.55496,6.01466 -5.0514,9.16735 -1.45998,3.07586 -2.47173,6.36404 -2.99342,9.72861"
             style="fill:none;stroke:#280e00;stroke-width:0.79374999;stroke-linecap:butt;stroke-linejoin:miter;stroke-miterlimit:4;stroke-dasharray:none;stroke-opacity:1" />
          <path
             transform="matrix(0.26458333,0,0,0.26458333,0.64723208,4.77161)"
             inkscape:connector-curvature="0"
             id="path2020"
             d="m -2540.9951,745.26202 c -0.072,-0.11719 -0.3317,-2.23807 -0.5771,-4.71307 -0.5343,-5.39047 -0.6188,-18.58169 -0.1489,-23.25 1.1952,-11.87507 3.2493,-21.36179 6.5768,-30.375 2.7161,-7.35727 7.6609,-16.23972 11.7953,-21.1881 6.2996,-7.54001 12.9148,-11.90085 20.7989,-13.71098 2.3875,-0.54816 7.8695,-0.61502 10.3639,-0.12641 15.0035,2.93894 28.1769,17.65241 35.7239,39.90049 1.754,5.1707 4.2872,15.26467 4.2872,17.08311 0,0.22225 -0.7032,-0.85728 -1.5625,-2.39896 -2.3288,-4.17766 -4.5102,-7.13068 -7.4375,-10.06855 -5.466,-5.48548 -10.3207,-7.96017 -23.25,-11.85173 -12.7195,-3.82838 -16.8218,-5.72051 -21.8003,-10.05525 -3.8611,-3.36178 -7.8754,-9.1075 -9.1846,-13.14612 -0.1672,-0.51563 -0.3697,-0.9375 -0.4501,-0.9375 -0.08,0 -0.7466,0.18929 -1.4806,0.42065 -0.8675,0.27346 -1.334,0.55777 -1.3332,0.8125 0,0.74554 2.166,5.18829 3.6092,7.41062 1.7716,2.7282 3.1693,4.42402 5.6047,6.80002 l 1.8642,1.8188 -0.9547,2.5562 c -3.3195,8.88807 -7.8638,18.17816 -14.7633,30.18121 -10.4695,18.21362 -13.254,23.67338 -16.6202,32.58807 -0.5115,1.35469 -0.989,2.36719 -1.0611,2.25 z"
             style="opacity:1;fill:#462411;fill-opacity:1;stroke:#462411;stroke-width:0.75;stroke-linecap:round;stroke-linejoin:round;stroke-miterlimit:4;stroke-dasharray:none;stroke-dashoffset:0;stroke-opacity:1;paint-order:fill markers stroke" />
          <path
             sodipodi:nodetypes="csscccccccccsccsccccccccscccccccsccsccccc"
             inkscape:connector-curvature="0"
             id="path1995"
             d="m -686.64191,284.78173 c -0.56975,-0.36669 -1.55763,-2.09271 -1.81904,-3.93593 -0.50215,-3.54073 0.46016,-10.12933 2.68444,-18.37913 1.90717,-7.07368 5.86759,-18.60581 7.96325,-23.22769 0.83778,-1.8477 3.15301,-4.52586 5.04746,-5.83873 l 1.00406,-0.6958 2.21822,0.91661 c 8.47008,2.85336 17.70443,-0.89937 21.59831,-8.77731 0.66696,-1.34938 1.36411,-3.22733 1.54924,-4.17322 0.32861,-1.67912 -0.22905,-2.32997 0.99663,-2.94426 0.69049,-0.34604 1.75602,-0.68081 2.36789,-0.74393 l 1.11247,-0.11477 2.33219,2.79445 c 6.33705,7.5931 15.52461,20.3195 16.04758,21.45888 0.24245,-1.53371 2.42205,-8.59248 3.36815,-11.81648 0,0 2.64967,2.17633 3.83718,2.68487 1.25682,0.53824 4.25148,0.88083 4.25148,0.88083 0,0 0.43685,-0.0183 -2.12085,8.46125 l -0.78316,2.53687 c -0.83175,1.94051 -1.38057,3.78198 -3.03721,6.0112 -4.70135,5.15075 -8.66174,1.26664 -11.50506,-2.04968 -2.37744,-2.77292 -5.06198,-6.80922 -8.52718,-12.82096 -3.08573,-5.35338 -2.79823,-5.50332 -3.0421,-5.25945 -0.0942,0.0941 0.19834,0.92178 0.64998,1.83917 1.19052,2.41833 1.63785,4.43517 1.63785,7.38447 0,2.52624 -0.25326,4.14398 -1.71175,10.934 -0.3751,1.74625 -0.75557,4.54776 -0.8455,6.22558 l -0.16349,3.05057 -14.30007,8.25444 c -7.86503,4.53996 -15.12805,8.48476 -15.16993,8.4429 -0.0419,-0.0419 0.21145,-1.43819 0.5629,-3.10293 1.6805,-7.95972 0.46021,-17.14841 -0.22818,-22.10666 0,0 -0.13774,-1.27653 -0.24799,-1.27653 -0.26903,0 -8.13194,27.41632 -7.92257,27.62571 0.0903,0.0904 1.48669,-0.31243 3.10295,-0.49096 1.61629,-0.17849 4.89731,-0.89785 4.96097,-0.83419 0.0327,0.0327 0.0888,7.47127 0.0888,7.47127 -0.0275,0.0924 -6.26699,0.95538 -6.26699,0.95538 l -7.61124,0.66302 c 0,0 -1.92488,0.0968 -2.07977,-0.003 z"
             style="opacity:1;fill:#3c8998;fill-opacity:1;stroke:#2d6773;stroke-width:0.52916664;stroke-linecap:round;stroke-linejoin:round;stroke-miterlimit:4;stroke-dasharray:none;stroke-dashoffset:0;stroke-opacity:1;paint-order:fill markers stroke" />
        </g>
      </g>
      <g
         transform="translate(1.8708866,-14.03165)"
         id="g2849">
        <g
           id="g2561"
           transform="translate(714.03345,-112.98369)">
          <g
             style="stroke:#2c5260;stroke-width:0.39687499;stroke-miterlimit:4;stroke-dasharray:none;stroke-opacity:1"
             transform="translate(0.52916667,-10.384895)"
             id="g2530">
            <path
               sodipodi:nodetypes="cscscccccccccccccc"
               inkscape:connector-curvature="0"
               d="m -590.29329,237.21114 c 0.3593,0.58382 -0.95889,1.99273 -2.94428,3.1469 -1.98538,1.15417 -3.88613,1.61652 -4.24545,1.03269 -0.35931,-0.58382 0.95888,-1.99274 2.94427,-3.1469 1.98538,-1.15416 3.88614,-1.61653 4.24546,-1.03269 z m 0.0256,0.98085 c 0,0 1.67983,-1.56886 2.4409,-1.10222 1.21682,0.74608 0.8268,2.99526 0.19947,4.27734 -0.46872,0.95795 -2.50989,1.76482 -2.50989,1.76482 m 0.0195,-3.89991 c 0.0328,-3e-5 1.1491,-1.21119 1.69525,-0.83741 0.72268,0.4946 0.24689,1.85183 -0.17057,2.62165 -0.30633,0.5649 -1.54397,1.15436 -1.54397,1.15436 m -7.29662,-0.67775 c 0,0 -0.0862,5.65231 1.18746,6.43871 2.07276,1.27982 5.22162,0.02 5.96781,-2.02107 h 2e-5 c 0.34194,-2.31395 0.0557,-8.58086 0.0557,-8.58086"
               style="opacity:1;fill:none;fill-opacity:1;stroke:#3f7589;stroke-width:0.44529375;stroke-linecap:round;stroke-linejoin:round;stroke-miterlimit:4;stroke-dasharray:none;stroke-dashoffset:0;stroke-opacity:1;paint-order:fill markers stroke"
               id="path2459" />
          </g>
          <g
             id="g2552">
            <path
               style="opacity:1;fill:#4c8da6;fill-opacity:1;stroke:#4c8da6;stroke-width:0.05566217;stroke-linecap:round;stroke-linejoin:round;stroke-miterlimit:4;stroke-dasharray:none;stroke-dashoffset:0;stroke-opacity:1;paint-order:fill markers stroke"
               d="m -589.33335,232.14116 v -0.21545 l 0.39433,-0.23722 c 0.76443,-0.45988 1.027,-0.74362 1.31214,-1.4179 0.24684,-0.58367 0.34232,-1.01024 0.32549,-1.45401 -0.0175,-0.45739 -0.10937,-0.69526 -0.35111,-0.90806 -0.37022,-0.32587 -0.84868,-0.24483 -1.51009,0.2558 l -0.24497,0.18543 v -0.25819 -0.25818 l 0.29419,-0.23262 c 0.73658,-0.58244 1.38924,-0.8424 1.70498,-0.67911 0.14458,0.0748 0.37126,0.33536 0.45358,0.52145 0.35467,0.80183 0.21518,2.20943 -0.33344,3.3641 -0.12993,0.27351 -0.49262,0.64934 -0.88076,0.91275 -0.2494,0.16926 -0.83389,0.49858 -1.0312,0.58102 l -0.13314,0.0557 z"
               id="path2540"
               inkscape:connector-curvature="0" />
            <g
               id="g2546">
              <path
                 inkscape:connector-curvature="0"
                 id="path2538"
                 d="m -594.70446,237.77103 c -0.8529,-0.22967 -1.16274,-0.49023 -1.4289,-1.2016 -0.28965,-0.77421 -0.59483,-3.22187 -0.59308,-4.75681 v -0.42084 l 0.61178,-0.006 c 0.48002,-0.005 0.76166,-0.0575 1.30757,-0.24289 1.48773,-0.50499 3.26213,-1.56941 4.31066,-2.58586 0.34552,-0.33495 0.63639,-0.60084 0.64639,-0.59085 0.077,0.077 0.10209,4.92677 0.0315,6.09172 -0.0789,1.30154 -0.0997,1.43109 -0.2871,1.77943 -0.77263,1.43622 -2.98848,2.36819 -4.59936,1.93441 z"
                 style="opacity:1;fill:#4c8da6;fill-opacity:1;stroke:none;stroke-width:0.59354287;stroke-linecap:round;stroke-linejoin:round;stroke-miterlimit:4;stroke-dasharray:none;stroke-dashoffset:0;stroke-opacity:1;paint-order:fill markers stroke" />
              <path
                 inkscape:connector-curvature="0"
                 id="path2542"
                 d="m -596.67808,230.7469 c 0,-0.42649 1.3963,-1.75578 2.62244,-2.49658 1.59919,-0.96616 3.44776,-1.58504 3.89992,-1.3056 0.32364,0.20003 -0.31975,1.07919 -1.3724,1.87529 -1.90131,1.43789 -5.14996,2.6534 -5.14996,1.92689 z"
                 style="opacity:1;fill:#cf8c2b;fill-opacity:1;stroke:#cf8c2b;stroke-width:0.2226487;stroke-linecap:round;stroke-linejoin:round;stroke-miterlimit:4;stroke-dasharray:none;stroke-dashoffset:0;stroke-opacity:1;paint-order:fill markers stroke" />
            </g>
          </g>
        </g>
        <path
           style="opacity:1;fill:#ffe2b6;fill-opacity:1;stroke:#ffe2b6;stroke-width:0.06625;stroke-linecap:round;stroke-linejoin:round;stroke-miterlimit:4;stroke-dasharray:none;stroke-dashoffset:0;stroke-opacity:1;paint-order:fill markers stroke"
           d="m 119.8793,127.57599 c -0.48371,-0.89676 -1.61648,-2.53957 -2.61903,-3.40254 l -0.41627,-0.35833 0.10475,-0.49609 c 0.0576,-0.27285 0.20822,-1.22535 0.33464,-2.11667 0.12642,-0.89131 0.24683,-1.67437 0.26757,-1.74011 0.0206,-0.0657 0.1115,-0.14761 0.2017,-0.18191 0.27961,-0.1063 1.17403,-0.0689 1.92145,0.0803 0.90094,0.17984 1.62933,0.19522 1.9144,0.0404 0.22905,-0.12439 1.47552,-1.63011 1.73945,-2.10125 0.0917,-0.16371 0.34681,-0.78787 0.56687,-1.38702 l 0.4001,-1.08937 0.24974,-0.0591 c 0.13737,-0.0325 0.26397,-0.0449 0.28133,-0.0275 0.0419,0.0419 -0.15849,2.41196 -0.24088,2.84889 -0.0355,0.18835 -0.18116,0.75918 -0.32364,1.2685 -0.1425,0.50933 -0.29305,1.10464 -0.33456,1.32292 -0.0415,0.21828 -0.19471,0.90289 -0.34039,1.52136 -0.14568,0.61846 -0.30715,1.3626 -0.35883,1.65364 -0.12025,0.67734 -0.12038,1.62275 0,2.08563 0.0516,0.19887 0.33552,0.96321 0.32782,0.97093 -0.008,0.008 -0.77779,0.38506 -1.71127,0.83855 l -1.69722,0.82454 -0.26742,-0.49576 z"
           id="path2534"
           inkscape:connector-curvature="0"
           sodipodi:nodetypes="ccccsccccccccccccsccccccc" />
        <path
           style="opacity:1;fill:#edcd57;fill-opacity:1;stroke:#d69e05;stroke-width:0.13249999;stroke-linecap:round;stroke-linejoin:round;stroke-miterlimit:4;stroke-dasharray:none;stroke-dashoffset:0;stroke-opacity:1;paint-order:fill markers stroke"
           d="m 134.98515,161.37541 c -1.4886,-0.98603 -3.52954,-3.73767 -5.48801,-7.39902 -2.06465,-3.85993 -4.80132,-10.79715 -6.89142,-17.46922 -0.68045,-2.17216 -2.53082,-8.51971 -2.53082,-8.68179 0,-0.0666 3.33912,-1.64251 3.38437,-1.59727 0.0193,0.0195 0.92556,2.08871 2.01356,4.59834 5.77191,13.31383 8.77003,19.48617 9.70925,19.98883 0.21148,0.11316 0.32399,0.0844 0.56886,-0.14571 0.67812,-0.63706 2.72581,-4.80079 6.37532,-12.96349 6.70687,-15.00092 6.54357,-14.67115 7.93504,-16.02373 5.00292,-4.86315 11.12231,-7.92451 18.10163,-9.05572 1.50963,-0.24469 7.61539,-0.41078 8.46666,-0.23032 0.50906,0.10792 0.55444,0.16233 1.19457,1.43232 0.93289,1.85081 2.15313,4.99199 3.44212,8.86077 3.26009,9.78498 4.56864,17.25977 3.50949,20.04726 -0.31134,0.81934 -1.10588,1.79016 -1.85515,2.2667 -2.62351,1.66857 -4.67532,-2.21446 -5.77916,-10.93688 -0.15116,-1.19441 -0.2308,-3.05344 -0.26067,-6.08541 -0.0238,-2.4011 -0.0452,-4.39242 -0.0479,-4.42516 -0.003,-0.0327 -0.0723,0.008 -0.15465,0.0903 -0.44199,0.44198 -0.77626,7.54776 -0.52443,11.14792 0.33351,4.76783 1.06979,8.05858 2.40464,10.74754 l 0.50839,1.0241 -1.74778,1.20766 c -0.96128,0.66421 -3.83138,2.5908 -6.37799,4.2813 -6.84721,4.54536 -11.10285,7.15386 -13.61088,8.34287 -1.65852,0.78627 -1.77369,0.81172 -1.87349,0.4141 -0.14825,-0.59071 0.21772,-2.86393 0.92734,-5.76011 0.38555,-1.57361 0.77533,-3.51594 0.86619,-4.31631 0.38121,-3.35822 -0.2989,-6.75093 -2.07412,-10.34664 -0.75809,-1.53552 -2.72182,-4.66847 -2.92619,-4.66847 -0.0625,0 -0.60825,1.11621 -1.21282,2.48047 -1.56755,3.53722 -5.17642,10.79789 -6.75632,13.59298 -3.07295,5.4365 -5.71154,8.86777 -7.47967,9.72672 -0.73726,0.35816 -1.10019,0.32919 -1.81594,-0.14489 z"
           id="path2515"
           inkscape:connector-curvature="0" />
        <path
           style="opacity:1;fill:#2a628a;fill-opacity:1;stroke:#2a628a;stroke-width:0.06625;stroke-linecap:round;stroke-linejoin:round;stroke-miterlimit:4;stroke-dasharray:none;stroke-dashoffset:0;stroke-opacity:1;paint-order:fill markers stroke"
           d="m 162.18988,80.254268 c -1.95781,-1.424599 -4.6758,-2.540291 -7.20852,-2.959 -0.55428,-0.09164 -1.93374,-0.235561 -2.27267,-0.237119 -0.10088,-5.29e-4 -0.11483,-0.03316 -0.0777,-0.182468 0.15023,-0.604464 1.19285,-2.993098 1.30644,-2.993098 0.0333,0 0.15533,0.07109 0.27114,0.157966 0.33705,0.252852 0.87545,0.499925 1.62719,0.746697 2.30314,0.75606 4.45587,2.30955 5.88465,4.246618 0.43185,0.585478 0.96419,1.455028 0.91866,1.50056 -0.0148,0.01487 -0.21699,-0.111207 -0.44918,-0.280156 z"
           id="path2519"
           inkscape:connector-curvature="0" />
        <path
           style="opacity:1;fill:#ffe2b6;fill-opacity:1;stroke:#ffe2b6;stroke-width:0.09369165;stroke-linecap:round;stroke-linejoin:round;stroke-miterlimit:4;stroke-dasharray:none;stroke-dashoffset:0;stroke-opacity:1;paint-order:fill markers stroke"
           d="m 157.8701,105.88838 c -1.04153,-0.86737 -2.19061,-2.26938 -3.09721,-3.77891 -3.79973,-6.326648 -4.81848,-15.996092 -2.52463,-23.962024 l 0.29324,-1.018296 0.84945,0.05972 c 2.96725,0.208603 6.0417,1.288582 8.61658,3.026759 0.7585,0.512033 0.80319,0.562086 1.06452,1.192231 1.21034,2.918537 1.3806,6.484639 0.51597,10.807319 -0.66009,3.300024 -1.96776,7.359785 -3.43496,10.664051 -0.64354,1.44929 -1.63115,3.46114 -1.69907,3.46114 -0.0228,0 -0.28538,-0.20339 -0.58389,-0.45198 z"
           id="path2526"
           inkscape:connector-curvature="0" />
        <path
           style="opacity:1;fill:#ffe2b6;fill-opacity:1;stroke:#ffe2b6;stroke-width:0.06625;stroke-linecap:round;stroke-linejoin:round;stroke-miterlimit:4;stroke-dasharray:none;stroke-dashoffset:0;stroke-opacity:1;paint-order:fill markers stroke"
           d="m 157.9576,105.9956 c -3.21312,-2.65967 -5.67343,-7.813425 -6.57124,-13.765113 -0.72134,-4.781709 -0.43344,-9.525905 0.85992,-14.171486 l 0.27154,-0.975394 0.47183,0.03776 c 2.76302,0.221096 4.81277,0.782569 7.11946,1.950156 1.0399,0.526368 2.40319,1.399368 2.65692,1.701374 0.38444,0.457566 0.98206,2.351331 1.21518,3.850823 0.1642,1.056071 0.19939,3.307268 0.0724,4.633217 -0.36827,3.846057 -1.91114,9.252624 -3.92533,13.755323 -0.58462,1.30692 -1.52424,3.21142 -1.62613,3.29598 -0.0617,0.0512 -0.2032,-0.0301 -0.54456,-0.31263 z"
           id="path2532"
           inkscape:connector-curvature="0" />
        <path
           style="fill:#61b4bd;fill-opacity:1;stroke:#61b4bd;stroke-width:0.26458332px;stroke-linecap:butt;stroke-linejoin:round;stroke-opacity:1"
           d="m 154.76288,74.464361 c 3.327,0.909613 6.20635,3.337553 7.66479,6.46314 0.94044,2.015461 1.30077,4.268598 1.27253,6.492493 -0.0282,2.223895 -0.43353,4.427591 -0.96647,6.586868 -1.58886,6.437428 -4.33996,12.598028 -8.17708,18.005568 -1.65632,2.33421 -3.52496,4.54943 -4.75204,7.1352 -0.61354,1.29288 -1.06055,2.67552 -1.20021,4.09977 -0.13966,1.42425 0.0369,2.89303 0.62021,4.19984 0.3252,0.72859 0.77006,1.39642 1.21608,2.05798 0.68445,1.0152 1.38205,2.03136 2.24507,2.89987 1.22651,1.23431 2.77165,2.14274 4.43574,2.65132 1.66409,0.50857 3.44376,0.61987 5.16445,0.36093 3.44139,-0.51788 6.58025,-2.52408 8.73451,-5.25731 1.94178,-2.46365 3.10898,-5.45976 3.84411,-8.50929 0.73512,-3.04953 1.06233,-6.17968 1.49092,-9.28715 0.98179,-7.11845 2.50324,-14.160386 3.27104,-21.305089 0.3867,-3.598458 0.57982,-7.251159 0.008,-10.824836 -0.57207,-3.573677 -1.95643,-7.089152 -4.40432,-9.754914 -2.01152,-2.190558 -4.6806,-3.733271 -7.53287,-4.575472 -2.85227,-0.842202 -5.88269,-1.0013 -8.8374,-0.663018 -1.39894,0.160163 -2.8091,0.438426 -4.05288,1.098494 -0.62189,0.330033 -1.19697,0.754762 -1.66811,1.277922 -0.47114,0.52316 -0.83658,1.146486 -1.02764,1.824104 -0.28347,1.005382 -0.16572,2.118002 0.32192,3.041774 0.48764,0.923773 1.33987,1.648678 2.32991,1.981806 z"
           id="path2501"
           inkscape:connector-curvature="0"
           inkscape:path-effect="#path-effect2503"
           inkscape:original-d="m 154.76288,74.464361 c 0.18682,0.15617 3.67381,4.59199 7.66479,6.46314 3.99095,1.87115 0.68053,8.90078 0.30606,13.079361 -0.37444,4.17858 -5.49521,10.085218 -8.17708,18.005568 -2.68187,7.92035 -3.55444,10.28961 -5.33204,15.43481 -1.7776,5.14521 0.81097,1.37172 1.21608,2.05798 0.4051,0.68626 1.49698,1.93299 2.24507,2.89987 0.74808,0.96689 12.22338,-1.49697 18.3347,-2.24506 6.11129,-0.74809 3.55695,-11.86456 5.33503,-17.79644 1.77808,-5.93189 2.18096,-14.203659 3.27104,-21.305089 1.09008,-7.10143 -2.93079,-13.7201 -4.39658,-20.57975 -1.46579,-6.85966 -10.91324,-3.49259 -16.37027,-5.23849 -2.08344,-0.56672 -5.28657,2.52495 -6.74863,4.20052 -0.92118,1.05571 2.65183,5.02358 2.65183,5.02358 z"
           sodipodi:nodetypes="cccssccsssscsc" />
        <path
           style="opacity:1;fill:#61b4bd;fill-opacity:1;stroke:#61b4bd;stroke-width:0.5;stroke-linecap:round;stroke-linejoin:round;stroke-miterlimit:4;stroke-dasharray:none;stroke-dashoffset:0;stroke-opacity:1;paint-order:fill markers stroke;filter:url(#filter2690)"
           d="m -2191.1747,848.9807 c -8.3149,-2.31835 -18.5096,-11.85114 -27.7809,-25.9772 -1.9854,-3.025 -4.7699,-7.525 -6.1878,-10 -0.1795,-0.74511 -3.0049,-5.76351 -0.061,-11.71458 3.1049,-6.21485 3.0618,-5.86645 3.1983,-25.85752 0.1368,-20.04272 0.4177,-22.30947 3.096,-24.98778 2.2734,-2.27338 2.5363,-1.75709 2.6403,5.18488 0.4218,28.14323 9.3788,52.96491 22.046,61.09339 8.8892,5.70418 19.3706,2.5096 28.3258,-8.63333 7.0067,-8.71835 12.7583,-19.99091 18.7943,-36.83506 l 2.4189,-6.75 -0.2791,3.25 c -1.7649,20.55199 -7.8607,43.8431 -15.4419,59 -8.8165,17.627 -19.5244,25.36233 -30.7687,22.2272 z"
           id="path2660"
           inkscape:connector-curvature="0"
           transform="matrix(0.24795505,0,0,0.25935725,708.85344,-89.325202)"
           sodipodi:nodetypes="ccccccccccccccc" />
        <path
           style="opacity:1;fill:#4aa6b0;fill-opacity:1;stroke:#4aa6b0;stroke-width:0.70710677;stroke-linecap:round;stroke-linejoin:round;stroke-miterlimit:4;stroke-dasharray:none;stroke-dashoffset:0;stroke-opacity:1;paint-order:fill markers stroke;filter:url(#filter2740)"
           d="m -2190.0637,817.34113 c -10.0231,-3.58278 -19.3509,-20.05861 -22.9095,-40.46531 -2.2813,-13.08219 -2.9128,-33.36258 -1.1287,-36.24936 0.2746,-0.44428 0.9113,0.86346 1.4149,2.90609 1.322,5.36178 5.4646,15.58278 8.2245,20.29173 3.987,6.80284 8.3143,11.03327 14.3137,13.99328 l 5.3972,2.66288 12.0505,-0.0643 c 13.5918,-0.0725 16.1463,-0.62022 20.2702,-4.34595 1.5048,-1.3595 2.736,-2.17145 2.736,-1.80434 0,2.4307 -9.029,21.27592 -13.2154,27.58304 -8.6185,12.98422 -18.4605,18.59956 -27.1534,15.49225 z"
           id="path2736"
           inkscape:connector-curvature="0"
           transform="matrix(0.24795505,0,0,0.25935725,708.85344,-89.325202)" />
        <path
           style="opacity:1;fill:#4aa6b0;fill-opacity:1;stroke:#4aa6b0;stroke-width:0.70710677;stroke-linecap:round;stroke-linejoin:round;stroke-miterlimit:4;stroke-dasharray:none;stroke-dashoffset:0;stroke-opacity:1;paint-order:fill markers stroke;filter:url(#filter2744)"
           d="m -2204.6155,859.42769 c -8.6021,-2.97264 -15.8237,-10.97862 -23.1402,-25.6537 -5.2929,-10.61622 -11.0346,-27.26049 -11.0346,-31.98748 0,-2.60766 0.8117,-4.83 3.9732,-10.87743 l 3.9732,-7.60021 0.5569,-12.28861 c 0.612,-13.50619 0.9391,-14.4542 5.2877,-15.32486 l 2.1189,-0.42422 -0.1737,9.7762 c -0.5777,32.52573 -0.3217,29.70102 -3.223,35.56566 -1.4375,2.90584 -2.6137,6.03981 -2.6137,6.96438 0,3.69177 13.0746,23.44168 20.7561,31.35339 10.4431,10.75588 20.6804,14.41043 29.3489,10.47702 3.9975,-1.81392 4.2242,-1.76731 2.1674,0.44564 -3.2461,3.49235 -10.6221,8.22493 -14.8888,9.55287 -5.283,1.64427 -8.3973,1.64934 -13.1083,0.0214 z"
           id="path2738"
           inkscape:connector-curvature="0"
           transform="matrix(0.24795505,0,0,0.25935725,708.85344,-89.325202)" />
      </g>
      <path
         inkscape:connector-curvature="0"
         id="path1866"
         d="m 68.308481,158.48465 1.49672,3.92887"
         style="fill:none;stroke:#919a9e;stroke-width:0.26458332;stroke-linecap:butt;stroke-linejoin:miter;stroke-miterlimit:4;stroke-dasharray:none;stroke-opacity:1" />
      <path
         inkscape:connector-curvature="0"
         id="path1868"
         d="m 69.898761,156.05249 2.52569,6.82874"
         style="fill:none;stroke:#919a9e;stroke-width:0.26458332px;stroke-linecap:butt;stroke-linejoin:miter;stroke-opacity:1" />
      <path
         sodipodi:nodetypes="ccccc"
         inkscape:connector-curvature="0"
         id="path1810-6"
         d="m 78.934306,164.02278 -14.986788,-0.0461 9.268065,-16.08091 c 4.995583,0.0154 9.991186,0.0307 14.986788,0.0461 z"
         style="fill:none;stroke:#2c3538;stroke-width:0.23419711;stroke-linecap:butt;stroke-linejoin:round;stroke-miterlimit:4;stroke-dasharray:none;stroke-opacity:1" />
      <path
         d="m 80.240833,166.70645 -16.957926,-0.0522 -0.930461,-1.62309 m 16.957938,0.0521 0.930453,1.6231 10.487059,-18.19596 -0.930453,-1.6231 m -10.487059,18.19596 -16.957938,-0.0521 10.487059,-18.19596 c 5.652644,0.0174 11.305285,0.0348 16.957938,0.0521 z"
         style="fill:none;stroke:#758085;stroke-width:0.26458332px;stroke-linecap:butt;stroke-linejoin:round;stroke-opacity:1"
         id="path1852"
         inkscape:connector-curvature="0" />
      <path
         transform="scale(0.26458333)"
         inkscape:connector-curvature="0"
         id="path2908"
         d="m 246.64807,629.23342 -7.19734,-0.0761 -1.30532,-2.32709 -1.30532,-2.32709 23.40241,-0.0596 c 12.87132,-0.0328 26.97439,0.024 31.34015,0.12627 l 7.93774,0.18589 0.65895,1.13642 c 0.36242,0.62504 0.97158,1.67623 1.35368,2.33598 l 0.69473,1.19956 -24.19117,-0.0591 c -13.30515,-0.0325 -27.42998,-0.0933 -31.38851,-0.13516 z"
         style="opacity:1;fill:#919a9e;fill-opacity:1;stroke:#919a9e;stroke-width:0.50507629;stroke-linecap:round;stroke-linejoin:round;stroke-miterlimit:4;stroke-dasharray:none;stroke-dashoffset:0;stroke-opacity:1;paint-order:fill markers stroke" />
      <path
         transform="scale(0.26458333)"
         inkscape:connector-curvature="0"
         id="path2910"
         d="m 302.89751,628.1363 c -1.86007,-2.98229 -2.40081,-4.15374 -2.1428,-4.64214 0.22676,-0.42925 34.68983,-60.30758 37.62848,-65.37812 l 1.00691,-1.73739 1.22831,2.1162 c 0.67556,1.16391 1.29118,2.30422 1.36805,2.53403 0.0884,0.26417 -6.83705,12.52322 -18.83171,33.33503 -10.43431,18.10446 -19.1762,33.24521 -19.42642,33.64612 l -0.45495,0.72892 z"
         style="opacity:1;fill:#919a9e;fill-opacity:1;stroke:#919a9e;stroke-width:0.50507629;stroke-linecap:round;stroke-linejoin:round;stroke-miterlimit:4;stroke-dasharray:none;stroke-dashoffset:0;stroke-opacity:1;paint-order:fill markers stroke" />
      <path
         transform="scale(0.26458333)"
         inkscape:connector-curvature="0"
         id="path2913"
         d="m 255.56783,623.11666 -18.73316,-0.1287 19.36451,-33.64507 19.3645,-33.64507 31.39946,-0.006 31.39945,-0.006 -0.60086,1.07329 c -0.33047,0.59031 -9.10227,15.81836 -19.49289,33.84011 l -18.89204,32.76682 -12.5379,-0.0607 c -6.89585,-0.0334 -20.96783,-0.11862 -31.27107,-0.18941 z m 48.60208,-12.18739 c 3.05751,-5.31277 10.93121,-18.97824 17.49712,-30.36771 6.56591,-11.38947 11.98573,-20.94563 12.04406,-21.23591 0.10293,-0.5122 -0.0119,-0.53267 -3.89313,-0.69364 -2.19955,-0.0912 -15.09379,-0.16624 -28.65387,-0.1667 -19.42066,-6.5e-4 -24.70863,0.0662 -24.90882,0.31483 -0.89162,1.10751 -35.15887,60.95024 -35.05558,61.21943 0.10491,0.27339 4.52963,0.34616 24.31719,0.39989 13.30392,0.0361 26.19256,0.0935 28.64143,0.12754 l 4.45249,0.0618 z"
         style="opacity:1;fill:#919a9e;fill-opacity:1;stroke:#919a9e;stroke-width:0.50507629;stroke-linecap:round;stroke-linejoin:round;stroke-miterlimit:4;stroke-dasharray:none;stroke-dashoffset:0;stroke-opacity:1;paint-order:fill markers stroke" />
      <path
         transform="scale(0.26458333)"
         inkscape:connector-curvature="0"
         id="path2915"
         d="m 243.42821,619.14794 c -0.31252,-0.0602 -0.56821,-0.14608 -0.56821,-0.19085 0,-0.0448 7.45531,-13.02049 16.56735,-28.83492 9.11205,-15.81443 16.8113,-29.18851 17.10946,-29.72017 l 0.5421,-0.96665 27.52666,0.17609 c 15.13966,0.0969 27.56161,0.20692 27.60433,0.24462 0.0427,0.0377 -7.62736,13.43388 -17.04462,29.76931 l -17.12228,29.70079 -27.02329,-0.0344 c -14.86281,-0.0189 -27.27899,-0.0836 -27.5915,-0.14383 z m 30.63933,-3.69479 c 0.0712,-0.18561 -1.99732,-6.09649 -4.59676,-13.1353 -4.39889,-11.91139 -4.76262,-12.78669 -5.25132,-12.63687 -0.28879,0.0885 -0.55212,0.18337 -0.58519,0.21076 -0.0448,0.0371 7.56768,20.76969 9.27267,25.25413 0.2611,0.68677 0.94545,0.86796 1.1606,0.30728 z m -9.86309,-1.69089 c 0.0886,-0.14333 -1.11082,-3.60099 -2.66533,-7.6837 -2.57018,-6.75019 -2.87129,-7.40649 -3.32161,-7.23991 -0.27237,0.10076 -0.51521,0.24394 -0.53963,0.31819 -0.0244,0.0742 1.20566,3.44753 2.73352,7.49621 2.12524,5.6317 2.87825,7.36223 3.20495,7.36552 0.23487,0.002 0.49952,-0.11298 0.5881,-0.25631 z"
         style="opacity:1;fill:#3f4b4f;fill-opacity:1;stroke:#3f4b4f;stroke-width:0.50507629;stroke-linecap:round;stroke-linejoin:round;stroke-miterlimit:4;stroke-dasharray:none;stroke-dashoffset:0;stroke-opacity:1;paint-order:fill markers stroke" />
    </g>
    <g
       id="g3342">
      <text
         id="text3067"
         y="252.77678"
         x="84.288696"
         style="font-style:normal;font-variant:normal;font-weight:900;font-stretch:normal;font-size:50.8px;line-height:1.25;font-family:Merriweather;-inkscape-font-specification:'Merriweather Heavy';letter-spacing:0px;word-spacing:0px;fill:none;fill-opacity:1;stroke:#000000;stroke-width:1.32291667;stroke-opacity:1;stroke-miterlimit:4;stroke-dasharray:none"
         xml:space="preserve"><tspan
           style="stroke-width:1.32291667;-inkscape-font-specification:'Merriweather Heavy';font-family:Merriweather;font-weight:900;font-style:normal;font-stretch:normal;font-variant:normal;font-size:50.8px;stroke:#000000;stroke-opacity:1;fill:none;stroke-miterlimit:4;stroke-dasharray:none"
           y="252.77678"
           x="84.288696"
           id="tspan3065"
           sodipodi:role="line">A</tspan></text>
      <g
         id="g3140">
        <rect
           style="opacity:1;fill:#ffffff;fill-opacity:1;stroke:#000000;stroke-width:0.40358424;stroke-linecap:round;stroke-linejoin:round;stroke-miterlimit:4;stroke-dasharray:none;stroke-dashoffset:0;stroke-opacity:1;paint-order:fill markers stroke"
           id="rect3069"
           width="2.242249"
           height="2.242249"
           x="82.400604"
           y="251.71259" />
        <rect
           style="opacity:1;fill:#ffffff;fill-opacity:1;stroke:#000000;stroke-width:0.40358424;stroke-linecap:round;stroke-linejoin:round;stroke-miterlimit:4;stroke-dasharray:none;stroke-dashoffset:0;stroke-opacity:1;paint-order:fill markers stroke"
           id="rect3069-4"
           width="2.242249"
           height="2.242249"
           x="95.508896"
           y="251.71259" />
      </g>
      <rect
         y="251.71259"
         x="103.66063"
         height="2.242249"
         width="2.242249"
         id="rect3069-5"
         style="opacity:1;fill:#ffffff;fill-opacity:1;stroke:#000000;stroke-width:0.40358424;stroke-linecap:round;stroke-linejoin:round;stroke-miterlimit:4;stroke-dasharray:none;stroke-dashoffset:0;stroke-opacity:1;paint-order:fill markers stroke" />
      <rect
         y="251.71259"
         x="119.83043"
         height="2.242249"
         width="2.242249"
         id="rect3069-1"
         style="opacity:1;fill:#ffffff;fill-opacity:1;stroke:#000000;stroke-width:0.40358424;stroke-linecap:round;stroke-linejoin:round;stroke-miterlimit:4;stroke-dasharray:none;stroke-dashoffset:0;stroke-opacity:1;paint-order:fill markers stroke" />
      <rect
         y="248.37172"
         x="82.400604"
         height="2.242249"
         width="2.242249"
         id="rect3069-44"
         style="opacity:1;fill:#ffffff;fill-opacity:1;stroke:#000000;stroke-width:0.40358424;stroke-linecap:round;stroke-linejoin:round;stroke-miterlimit:4;stroke-dasharray:none;stroke-dashoffset:0;stroke-opacity:1;paint-order:fill markers stroke" />
      <rect
         y="248.42184"
         x="95.496811"
         height="2.242249"
         width="2.242249"
         id="rect3069-6"
         style="opacity:1;fill:#ffffff;fill-opacity:1;stroke:#000000;stroke-width:0.40358424;stroke-linecap:round;stroke-linejoin:round;stroke-miterlimit:4;stroke-dasharray:none;stroke-dashoffset:0;stroke-opacity:1;paint-order:fill markers stroke" />
      <rect
         y="248.42184"
         x="103.68194"
         height="2.242249"
         width="2.242249"
         id="rect3069-2"
         style="opacity:1;fill:#ffffff;fill-opacity:1;stroke:#000000;stroke-width:0.40358424;stroke-linecap:round;stroke-linejoin:round;stroke-miterlimit:4;stroke-dasharray:none;stroke-dashoffset:0;stroke-opacity:1;paint-order:fill markers stroke" />
      <rect
         y="248.42184"
         x="119.83043"
         height="2.242249"
         width="2.242249"
         id="rect3069-24"
         style="opacity:1;fill:#ffffff;fill-opacity:1;stroke:#000000;stroke-width:0.40358424;stroke-linecap:round;stroke-linejoin:round;stroke-miterlimit:4;stroke-dasharray:none;stroke-dashoffset:0;stroke-opacity:1;paint-order:fill markers stroke" />
      <rect
         y="247.60332"
         x="107.45712"
         height="2.242249"
         width="2.242249"
         id="rect3069-68"
         style="opacity:1;fill:#ffffff;fill-opacity:1;stroke:#000000;stroke-width:0.40358424;stroke-linecap:round;stroke-linejoin:round;stroke-miterlimit:4;stroke-dasharray:none;stroke-dashoffset:0;stroke-opacity:1;paint-order:fill markers stroke" />
      <rect
         y="247.60332"
         x="116.67793"
         height="2.242249"
         width="2.242249"
         id="rect3069-0"
         style="opacity:1;fill:#ffffff;fill-opacity:1;stroke:#000000;stroke-width:0.40358424;stroke-linecap:round;stroke-linejoin:round;stroke-miterlimit:4;stroke-dasharray:none;stroke-dashoffset:0;stroke-opacity:1;paint-order:fill markers stroke" />
      <rect
         y="247.60332"
         x="91.821854"
         height="2.242249"
         width="2.242249"
         id="rect3069-62"
         style="opacity:1;fill:#ffffff;fill-opacity:1;stroke:#000000;stroke-width:0.40358424;stroke-linecap:round;stroke-linejoin:round;stroke-miterlimit:4;stroke-dasharray:none;stroke-dashoffset:0;stroke-opacity:1;paint-order:fill markers stroke" />
      <rect
         y="247.60332"
         x="85.607834"
         height="2.242249"
         width="2.242249"
         id="rect3069-62-6"
         style="opacity:1;fill:#ffffff;fill-opacity:1;stroke:#000000;stroke-width:0.40358424;stroke-linecap:round;stroke-linejoin:round;stroke-miterlimit:4;stroke-dasharray:none;stroke-dashoffset:0;stroke-opacity:1;paint-order:fill markers stroke" />
      <rect
         y="241.62317"
         x="93.559105"
         height="2.242249"
         width="2.242249"
         id="rect3069-62-2"
         style="opacity:1;fill:#ffffff;fill-opacity:1;stroke:#000000;stroke-width:0.40358424;stroke-linecap:round;stroke-linejoin:round;stroke-miterlimit:4;stroke-dasharray:none;stroke-dashoffset:0;stroke-opacity:1;paint-order:fill markers stroke" />
      <rect
         y="241.62317"
         x="105.41919"
         height="2.242249"
         width="2.242249"
         id="rect3069-62-64"
         style="opacity:1;fill:#ffffff;fill-opacity:1;stroke:#000000;stroke-width:0.40358424;stroke-linecap:round;stroke-linejoin:round;stroke-miterlimit:4;stroke-dasharray:none;stroke-dashoffset:0;stroke-opacity:1;paint-order:fill markers stroke" />
      <rect
         y="237.81456"
         x="104.45034"
         height="2.242249"
         width="2.242249"
         id="rect3069-62-8"
         style="opacity:1;fill:#ffffff;fill-opacity:1;stroke:#000000;stroke-width:0.40358424;stroke-linecap:round;stroke-linejoin:round;stroke-miterlimit:4;stroke-dasharray:none;stroke-dashoffset:0;stroke-opacity:1;paint-order:fill markers stroke" />
      <rect
         y="237.81456"
         x="94.728409"
         height="2.242249"
         width="2.242249"
         id="rect3069-62-0"
         style="opacity:1;fill:#ffffff;fill-opacity:1;stroke:#000000;stroke-width:0.40358424;stroke-linecap:round;stroke-linejoin:round;stroke-miterlimit:4;stroke-dasharray:none;stroke-dashoffset:0;stroke-opacity:1;paint-order:fill markers stroke" />
      <rect
         y="219.90752"
         x="99.505852"
         height="2.242249"
         width="2.242249"
         id="rect3069-62-9"
         style="opacity:1;fill:#ffffff;fill-opacity:1;stroke:#000000;stroke-width:0.40358424;stroke-linecap:round;stroke-linejoin:round;stroke-miterlimit:4;stroke-dasharray:none;stroke-dashoffset:0;stroke-opacity:1;paint-order:fill markers stroke" />
      <rect
         y="213.6601"
         x="96.732933"
         height="2.242249"
         width="2.242249"
         id="rect3069-62-92"
         style="opacity:1;fill:#ffffff;fill-opacity:1;stroke:#000000;stroke-width:0.40358424;stroke-linecap:round;stroke-linejoin:round;stroke-miterlimit:4;stroke-dasharray:none;stroke-dashoffset:0;stroke-opacity:1;paint-order:fill markers stroke" />
      <rect
         y="213.6601"
         x="105.31897"
         height="2.242249"
         width="2.242249"
         id="rect3069-62-01"
         style="opacity:1;fill:#ffffff;fill-opacity:1;stroke:#000000;stroke-width:0.40358424;stroke-linecap:round;stroke-linejoin:round;stroke-miterlimit:4;stroke-dasharray:none;stroke-dashoffset:0;stroke-opacity:1;paint-order:fill markers stroke" />
      <g
         transform="rotate(155.74523,97.767047,205.09074)"
         id="g3237">
        <path
           style="opacity:1;fill:#000000;fill-opacity:1;stroke:#000000;stroke-width:0.13229167;stroke-linecap:square;stroke-linejoin:bevel;stroke-miterlimit:4;stroke-dasharray:none;stroke-dashoffset:0;stroke-opacity:1;paint-order:fill markers stroke"
           d="m 98.489267,211.60102 -0.114803,-0.1148 v -1.18441 c 0,-1.4515 -0.02212,-1.39232 0.520012,-1.39232 h 0.374391 l -0.0327,-0.22217 c -0.118004,-0.80192 -0.54959,-1.59506 -1.379847,-2.53582 -0.553479,-0.62714 -0.553508,-0.61423 0.0038,-1.81012 0.918228,-1.97024 2.58734,-5.75209 3.22713,-7.31202 0.16354,-0.39873 0.31139,-0.74174 0.32855,-0.76221 0.0172,-0.0204 0.0691,0.0637 0.11535,0.18708 0.39716,1.05892 2.47117,5.90934 3.36584,7.87159 0.3986,0.87421 0.53632,1.22275 0.5158,1.30522 -0.0154,0.0619 -0.18079,0.27699 -0.36754,0.47802 -0.68605,0.73846 -1.16307,1.52866 -1.33969,2.21922 -0.15084,0.58979 -0.1546,0.58121 0.25479,0.58121 0.2535,0 0.36732,0.0198 0.42095,0.0735 0.0632,0.0632 0.0735,0.25011 0.0735,1.33035 0,1.24579 -8e-4,1.25752 -0.10395,1.32967 -0.0913,0.064 -0.44747,0.0728 -2.92539,0.0728 h -2.821438 z m 5.521243,-1.33514 v -0.77174 l -2.56078,-0.0122 -2.560773,-0.0122 v 0.79592 0.79595 l 2.560773,-0.0122 2.56078,-0.0122 z m -0.84103,-1.6487 c 0.11131,-0.82748 0.6417,-1.87111 1.40645,-2.76738 0.16492,-0.19328 0.29987,-0.37026 0.29987,-0.39325 0,-0.059 -1.44238,-3.30555 -1.96736,-4.42817 -0.59418,-1.27056 -1.41704,-2.8869 -1.46955,-2.88661 -0.1104,0 -1.14038,2.12439 -2.555204,5.26886 l -0.924554,2.05483 0.195971,0.22985 c 0.898882,1.0542 1.388187,1.99797 1.551223,2.99201 l 0.02877,0.17539 h 1.700674 1.70068 z"
           id="path8980"
           inkscape:connector-curvature="0"
           inkscape:export-xdpi="210"
           inkscape:export-ydpi="210" />
        <path
           style="opacity:1;fill:#000000;fill-opacity:1;stroke:#000000;stroke-width:0.13229167;stroke-linecap:square;stroke-linejoin:bevel;stroke-miterlimit:4;stroke-dasharray:none;stroke-dashoffset:0;stroke-opacity:1;paint-order:fill markers stroke"
           d="m 101.2699,205.6815 c -0.55275,-0.0952 -0.97939,-0.74541 -0.91802,-1.39909 0.0553,-0.58873 0.35544,-1.07143 0.80218,-1.29001 l 0.25148,-0.12303 0.2398,0.10316 c 0.51054,0.21963 0.85349,0.79772 0.85478,1.44092 5.3e-4,0.29994 -0.0198,0.38503 -0.15652,0.65284 -0.23601,0.46236 -0.63474,0.6908 -1.0737,0.61521 z m 0.49635,-0.67371 c 0.3466,-0.22709 0.35888,-0.86873 0.0225,-1.17319 -0.15888,-0.14378 -0.55986,-0.13081 -0.72711,0.0236 -0.36095,0.33305 -0.32604,0.89249 0.0724,1.1607 0.18469,0.12433 0.43227,0.12001 0.63223,-0.0111 z"
           id="path8982"
           inkscape:connector-curvature="0"
           inkscape:export-xdpi="210"
           inkscape:export-ydpi="210" />
      </g>
    </g>
    <path
       style="fill:none;stroke:#d63d65;stroke-width:0.79374999;stroke-linecap:butt;stroke-linejoin:miter;stroke-miterlimit:4;stroke-dasharray:none;stroke-opacity:1"
       d="m 175.30799,216.98425 c -0.13838,-0.51716 -0.12254,-1.07456 0.045,-1.58303 0.16751,-0.50847 0.48609,-0.96613 0.90477,-1.29977 0.41868,-0.33363 0.93591,-0.54201 1.46895,-0.59179 0.53303,-0.0498 1.0799,0.0592 1.55312,0.30954 0.781,0.41315 1.31226,1.16458 1.89352,1.83001 0.29063,0.33271 0.6028,0.65153 0.96914,0.89843 0.36634,0.2469 0.79184,0.41982 1.23329,0.43661 0.53345,0.0203 1.05554,-0.18844 1.49619,-0.4898 0.44064,-0.30136 0.8112,-0.69235 1.17726,-1.08091 0.36607,-0.38857 0.73483,-0.78094 1.17299,-1.08591 0.43815,-0.30497 0.95696,-0.51994 1.49068,-0.50843 0.49438,0.0107 0.96936,0.21497 1.37392,0.49933 0.40456,0.28435 0.74711,0.64673 1.08151,1.01102 0.33439,0.36429 0.66581,0.73516 1.054,1.04149 0.38819,0.30632 0.84106,0.54795 1.33123,0.61321 0.50157,0.0668 1.01594,-0.0559 1.46912,-0.28095 0.45318,-0.22508 0.85063,-0.54857 1.21724,-0.89733 0.73322,-0.69751 1.37965,-1.52162 2.27842,-1.98677 0.53366,-0.27619 1.13964,-0.41112 1.74007,-0.38744 0.60043,0.0237 1.19391,0.20589 1.70416,0.52325 0.51026,0.31736 0.9361,0.7691 1.22282,1.29719 0.28671,0.52808 0.43362,1.13127 0.42184,1.73205"
       id="path3378"
       inkscape:connector-curvature="0"
       inkscape:path-effect="#path-effect3380"
       inkscape:original-d="m 175.30799,216.98425 c 1.32412,-0.91039 2.64806,-2.21364 3.97182,-3.16505 1.32377,-0.95141 2.7308,1.46857 4.09595,3.16505 1.36514,1.69647 3.55825,-1.67579 5.33712,-3.16505 1.77888,-1.48927 3.22729,1.96505 4.84066,3.16505 1.61338,1.19999 3.31002,-2.13089 4.96478,-3.16505 1.65475,-1.03416 3.39277,2.37878 5.08889,3.16505"
       sodipodi:nodetypes="czzzzzc" />
    <path
       style="fill:none;stroke:#d63d65;stroke-width:0.79374999;stroke-linecap:butt;stroke-linejoin:miter;stroke-miterlimit:4;stroke-dasharray:none;stroke-opacity:1"
       d="m 156.05267,262.9028 c -0.13838,-0.51716 -0.12254,-1.07456 0.045,-1.58303 0.16751,-0.50847 0.48609,-0.96613 0.90477,-1.29977 0.41868,-0.33363 0.93591,-0.54201 1.46895,-0.59179 0.53303,-0.0498 1.0799,0.0592 1.55312,0.30954 0.781,0.41315 1.31226,1.16458 1.89352,1.83001 0.29063,0.33271 0.6028,0.65153 0.96914,0.89843 0.36634,0.2469 0.79184,0.41982 1.23329,0.43661 0.53345,0.0203 1.05554,-0.18844 1.49619,-0.4898 0.44064,-0.30136 0.8112,-0.69235 1.17726,-1.08091 0.36607,-0.38857 0.73483,-0.78094 1.17299,-1.08591 0.43815,-0.30497 0.95696,-0.51994 1.49068,-0.50843 0.49438,0.0107 0.96936,0.21497 1.37392,0.49933 0.40456,0.28435 0.74711,0.64673 1.08151,1.01102 0.33439,0.36429 0.66581,0.73516 1.054,1.04149 0.38819,0.30632 0.84106,0.54795 1.33123,0.61321 0.50157,0.0668 1.01594,-0.0559 1.46912,-0.28095 0.45318,-0.22508 0.85063,-0.54857 1.21724,-0.89733 0.73322,-0.69751 1.37965,-1.52162 2.27842,-1.98677 0.53366,-0.27619 1.13964,-0.41112 1.74007,-0.38744 0.60043,0.0237 1.19391,0.20589 1.70416,0.52325 0.51026,0.31736 0.9361,0.7691 1.22282,1.29719 0.28671,0.52808 0.43362,1.13127 0.42184,1.73205"
       id="path3378-7"
       inkscape:connector-curvature="0"
       inkscape:path-effect="#path-effect3380-5"
       inkscape:original-d="m 156.05267,262.9028 c 1.32412,-0.91039 2.64806,-2.21364 3.97182,-3.16505 1.32377,-0.95141 2.7308,1.46857 4.09595,3.16505 1.36514,1.69647 3.55825,-1.67579 5.33712,-3.16505 1.77888,-1.48927 3.22729,1.96505 4.84066,3.16505 1.61338,1.19999 3.31002,-2.13089 4.96478,-3.16505 1.65475,-1.03416 3.39277,2.37878 5.08889,3.16505"
       sodipodi:nodetypes="czzzzzc" />
    <path
       style="fill:none;stroke:#d63d65;stroke-width:0.79374999;stroke-linecap:butt;stroke-linejoin:miter;stroke-miterlimit:4;stroke-dasharray:none;stroke-opacity:1"
       d="m 127.26,235.26838 c -0.13838,-0.51716 -0.12254,-1.07456 0.045,-1.58303 0.16751,-0.50847 0.48609,-0.96613 0.90477,-1.29977 0.41868,-0.33363 0.93591,-0.54201 1.46895,-0.59179 0.53303,-0.0498 1.0799,0.0592 1.55312,0.30954 0.781,0.41315 1.31226,1.16458 1.89352,1.83001 0.29063,0.33271 0.6028,0.65153 0.96914,0.89843 0.36634,0.2469 0.79184,0.41982 1.23329,0.43661 0.53345,0.0203 1.05554,-0.18844 1.49619,-0.4898 0.44064,-0.30136 0.8112,-0.69235 1.17726,-1.08091 0.36607,-0.38857 0.73483,-0.78094 1.17299,-1.08591 0.43815,-0.30497 0.95696,-0.51994 1.49068,-0.50843 0.49438,0.0107 0.96936,0.21497 1.37392,0.49933 0.40456,0.28435 0.74711,0.64673 1.08151,1.01102 0.33439,0.36429 0.66581,0.73516 1.054,1.04149 0.38819,0.30632 0.84106,0.54795 1.33123,0.61321 0.50157,0.0668 1.01594,-0.0559 1.46912,-0.28095 0.45318,-0.22508 0.85063,-0.54857 1.21724,-0.89733 0.73322,-0.69751 1.37965,-1.52162 2.27842,-1.98677 0.53366,-0.27619 1.13964,-0.41112 1.74007,-0.38744 0.60043,0.0237 1.19391,0.20589 1.70416,0.52325 0.51026,0.31736 0.9361,0.7691 1.22282,1.29719 0.28671,0.52808 0.43362,1.13127 0.42184,1.73205"
       id="path3378-8"
       inkscape:connector-curvature="0"
       inkscape:path-effect="#path-effect3380-8"
       inkscape:original-d="m 127.26,235.26838 c 1.32412,-0.91039 2.64806,-2.21364 3.97182,-3.16505 1.32377,-0.95141 2.7308,1.46857 4.09595,3.16505 1.36514,1.69647 3.55825,-1.67579 5.33712,-3.16505 1.77888,-1.48927 3.22729,1.96505 4.84066,3.16505 1.61338,1.19999 3.31002,-2.13089 4.96478,-3.16505 1.65475,-1.03416 3.39277,2.37878 5.08889,3.16505"
       sodipodi:nodetypes="czzzzzc" />
    <text
       xml:space="preserve"
       style="font-style:normal;font-variant:normal;font-weight:900;font-stretch:normal;font-size:50.79999924px;line-height:1.25;font-family:Merriweather;-inkscape-font-specification:'Merriweather Heavy';letter-spacing:0px;word-spacing:0px;fill:none;fill-opacity:1;stroke:#000000;stroke-width:1.32291663;stroke-miterlimit:4;stroke-dasharray:none;stroke-opacity:1"
       x="152.57001"
       y="255.29913"
       id="text3067-5"><tspan
         sodipodi:role="line"
         id="tspan3065-4"
         x="152.57001"
         y="255.29913"
         style="font-style:normal;font-variant:normal;font-weight:900;font-stretch:normal;font-size:50.79999924px;font-family:Merriweather;-inkscape-font-specification:'Merriweather Heavy';fill:none;stroke:#000000;stroke-width:1.32291663;stroke-miterlimit:4;stroke-dasharray:none;stroke-opacity:1">A</tspan></text>
    <g
       transform="matrix(1.7227675,0,0,1.7227675,1111.2553,-535.04561)"
       id="g3464">
      <ellipse
         ry="9.3076611"
         rx="8.2786732"
         cy="404.47354"
         cx="-494.24908"
         id="path3444"
         style="opacity:1;fill:#ffe2b6;fill-opacity:1;stroke:none;stroke-width:0.26458332;stroke-linecap:round;stroke-linejoin:round;stroke-miterlimit:4;stroke-dasharray:none;stroke-dashoffset:0;stroke-opacity:1;paint-order:fill markers stroke"
         transform="translate(-0.6236608,-0.15639987)" />
      <path
         transform="matrix(0.26458333,0,0,0.26458333,0.02357128,4.61521)"
         inkscape:connector-curvature="0"
         id="path3450"
         d="m -1896.2054,1490.7326 c 0.9273,-1.6385 3.3234,-4.6313 5.1619,-6.4473 4.8243,-4.7651 10.5836,-7.6338 17.038,-8.4865 9.3508,-1.2354 18.6714,2.3899 25.4905,9.9146 1.7201,1.8981 4.0325,5.117 3.825,5.3245 -0.049,0.049 -1.1888,-0.3083 -2.5318,-0.7953 -4.3314,-1.5704 -9.5146,-2.8147 -14.551,-3.4931 -3.336,-0.4494 -11.5144,-0.5466 -14.9979,-0.1784 -6.4621,0.6832 -13.2367,2.2949 -18.2733,4.3473 -0.7088,0.2889 -1.3507,0.5254 -1.4265,0.5258 -0.076,3e-4 0.043,-0.3199 0.2651,-0.7116 z"
         style="opacity:1;fill:#44779a;fill-opacity:1;stroke:#44779a;stroke-width:0.17677669;stroke-linecap:round;stroke-linejoin:round;stroke-miterlimit:4;stroke-dasharray:none;stroke-dashoffset:0;stroke-opacity:1;paint-order:fill markers stroke" />
      <path
         sodipodi:nodetypes="sscccccss"
         inkscape:connector-curvature="0"
         id="path3457"
         d="m -495.15451,391.03775 c -4.34726,0.22934 -6.94956,2.75637 -8.19753,4.72636 -5.34939,8.44429 -1.51352,9.62347 -0.32491,8.42177 1.38933,-2.17754 3.70994,-4.40446 4.67982,-6.10194 1.0197,-1.70351 1.80282,-2.00184 3.36493,-2.96481 1.5578,-0.28401 3.39495,1.69989 5.06866,2.96481 1.74157,1.38932 3.78712,5.1481 5.24206,7.29257 0.76373,0.92406 1.63918,-6.27478 -0.48207,-9.64446 -0.40902,-0.64975 -3.55071,-5.0003 -9.35096,-4.6943 z"
         style="fill:#61b4bd;fill-opacity:1;stroke:#47a0a9;stroke-width:0.26458332px;stroke-linecap:butt;stroke-linejoin:miter;stroke-opacity:1" />
    </g>
    <rect
       style="opacity:1;fill:#dcdcdc;fill-opacity:1;stroke:#afafaf;stroke-width:0.45581555;stroke-linecap:round;stroke-linejoin:round;stroke-miterlimit:4;stroke-dasharray:none;stroke-dashoffset:0;stroke-opacity:1;paint-order:fill markers stroke"
       id="rect3442"
       width="50.76387"
       height="31.425251"
       x="232.58667"
       y="155.13022"
       ry="2.9007926" />
    <path
       id="path3549"
       style="fill:#dcdcdc;stroke:#afafaf;stroke-width:0.396875;stroke-linecap:butt;stroke-linejoin:miter;stroke-opacity:1;stroke-miterlimit:4;stroke-dasharray:none;fill-opacity:1"
       d="m 248.74217,247.3444 h 45.6964 m -5.56588,-29.46645 c 0.67894,0.98151 0,23.71349 0,23.71349 0,0 4.56519,3.27948 5.56588,5.75297 0.48823,1.20681 -0.33646,3.84812 -1.63703,3.90548 -11.30965,0.49879 -32.53139,0.38694 -42.98361,0 -1.30094,-0.0482 -1.57211,-2.70199 -1.07576,-3.90548 1.03085,-2.49949 5.7179,-5.75297 5.7179,-5.75297 0,0 -1.34823,-23.27067 0,-23.71349 1.82364,-0.59897 33.83123,-0.84049 34.41262,0 z m -34.41261,23.71348 h 34.41261" />
    <rect
       style="opacity:1;fill:#ffffff;fill-opacity:1;stroke:#afafaf;stroke-width:0.26458332;stroke-linecap:round;stroke-linejoin:round;stroke-miterlimit:4;stroke-dasharray:none;stroke-dashoffset:0;stroke-opacity:1;paint-order:fill markers stroke"
       id="rect3585"
       width="29.700325"
       height="18.662096"
       x="256.74023"
       y="220.3335"
       rx="0.98221558"
       ry="0.98221558" />
    <g
       id="g3628"
       style="stroke:#0a0a0a;stroke-opacity:0.36862746">
      <path
         inkscape:connector-curvature="0"
         id="path3562"
         d="m 253.84032,247.28595 v 3.97563"
         style="fill:none;stroke:#0a0a0a;stroke-width:0.26458332px;stroke-linecap:butt;stroke-linejoin:miter;stroke-opacity:0.36862746" />
      <path
         inkscape:connector-curvature="0"
         id="path3562-8"
         d="m 256.22571,247.28596 v 3.97563"
         style="fill:none;stroke:#0a0a0a;stroke-width:0.26458332px;stroke-linecap:butt;stroke-linejoin:miter;stroke-opacity:0.36862746" />
      <path
         inkscape:connector-curvature="0"
         id="path3562-4"
         d="m 284.89705,247.28596 v 3.97563"
         style="fill:none;stroke:#0a0a0a;stroke-width:0.26458332px;stroke-linecap:butt;stroke-linejoin:miter;stroke-opacity:0.36862746" />
      <path
         inkscape:connector-curvature="0"
         id="path3587"
         d="m 265.20599,245.87109 h 12.76879"
         style="fill:none;stroke:#0a0a0a;stroke-width:0.52916676;stroke-linecap:round;stroke-linejoin:miter;stroke-miterlimit:4;stroke-dasharray:none;stroke-opacity:0.36862746" />
    </g>
    <g
       id="g3678"
       transform="translate(0,-0.29744203)">
      <text
         id="text3067-5-9-3"
         y="231.46605"
         x="259.82861"
         style="font-style:normal;font-variant:normal;font-weight:900;font-stretch:normal;font-size:11.68105316px;line-height:1.25;font-family:Merriweather;-inkscape-font-specification:'Merriweather Heavy';letter-spacing:0px;word-spacing:0px;fill:#3f4b4f;fill-opacity:1;stroke:#3f4b4f;stroke-width:0.30419409;stroke-miterlimit:4;stroke-dasharray:none;stroke-opacity:1"
         xml:space="preserve"><tspan
           style="font-style:normal;font-variant:normal;font-weight:900;font-stretch:normal;font-size:11.68105316px;font-family:Merriweather;-inkscape-font-specification:'Merriweather Heavy';fill:#3f4b4f;fill-opacity:1;stroke:#3f4b4f;stroke-width:0.30419409;stroke-miterlimit:4;stroke-dasharray:none;stroke-opacity:1"
           y="231.46605"
           x="259.82861"
           id="tspan3065-4-0-9"
           sodipodi:role="line">A</tspan></text>
      <text
         id="text3067-5-9"
         y="232.0006"
         x="259.2778"
         style="font-style:normal;font-variant:normal;font-weight:900;font-stretch:normal;font-size:11.68105316px;line-height:1.25;font-family:Merriweather;-inkscape-font-specification:'Merriweather Heavy';letter-spacing:0px;word-spacing:0px;fill:#ffffff;fill-opacity:1;stroke:#3f4b4f;stroke-width:0.30419409;stroke-miterlimit:4;stroke-dasharray:none;stroke-opacity:1"
         xml:space="preserve"><tspan
           style="font-style:normal;font-variant:normal;font-weight:900;font-stretch:normal;font-size:11.68105316px;font-family:Merriweather;-inkscape-font-specification:'Merriweather Heavy';fill:#ffffff;fill-opacity:1;stroke:#3f4b4f;stroke-width:0.30419409;stroke-miterlimit:4;stroke-dasharray:none;stroke-opacity:1"
           y="232.0006"
           x="259.2778"
           id="tspan3065-4-0"
           sodipodi:role="line">A</tspan></text>
    </g>
    <rect
       style="opacity:1;fill:#3c8998;fill-opacity:1;stroke:none;stroke-width:0.34217963;stroke-linecap:round;stroke-linejoin:round;stroke-miterlimit:4;stroke-dasharray:none;stroke-dashoffset:0;stroke-opacity:1;paint-order:fill markers stroke"
       id="rect3672"
       width="12.142485"
       height="3.96875"
       x="271.10342"
       y="222.30244"
       rx="0.61421132"
       ry="0.45658186" />
    <rect
       style="opacity:1;fill:#e49739;fill-opacity:1;stroke:none;stroke-width:0.34217963;stroke-linecap:round;stroke-linejoin:round;stroke-miterlimit:4;stroke-dasharray:none;stroke-dashoffset:0;stroke-opacity:1;paint-order:fill markers stroke"
       id="rect3672-7"
       width="12.142485"
       height="3.96875"
       x="271.10342"
       y="227.87759"
       rx="0.61421132"
       ry="0.45658186" />
    <rect
       style="opacity:1;fill:#d63d65;fill-opacity:1;stroke:none;stroke-width:0.52268803;stroke-linecap:round;stroke-linejoin:round;stroke-miterlimit:4;stroke-dasharray:none;stroke-dashoffset:0;stroke-opacity:1;paint-order:fill markers stroke"
       id="rect3672-7-8"
       width="24.284969"
       height="4.6302085"
       x="258.98456"
       y="233.14565"
       rx="1.2284226"
       ry="0.53267884" />
  </g>
</svg>
